<?xml version="1.0" standalone="no"?>
<!DOCTYPE svg PUBLIC "-//W3C//DTD SVG 20010904//EN"
 "http://www.w3.org/TR/2001/REC-SVG-20010904/DTD/svg10.dtd">
<svg version="1.0" xmlns="http://www.w3.org/2000/svg"
 width="2048.000000pt" height="2048.000000pt" viewBox="0 0 2048.000000 2048.000000"
 preserveAspectRatio="xMidYMid meet">

<g transform="translate(0.000000,2048.000000) scale(0.100000,-0.100000)"
fill="#000000" stroke="none">
<path d="M9640 20044 c-245 -14 -507 -40 -705 -69 -563 -82 -937 -161 -1415
-301 -225 -66 -279 -83 -305 -94 -11 -5 -94 -34 -185 -65 -91 -31 -174 -60
-185 -65 -11 -5 -87 -36 -170 -68 -194 -77 -442 -185 -614 -268 -75 -37 -145
-70 -156 -75 -27 -12 -272 -142 -371 -198 -272 -152 -609 -364 -826 -518 -272
-193 -546 -406 -731 -566 -272 -235 -631 -578 -808 -773 -35 -39 -84 -93 -109
-120 -443 -481 -908 -1130 -1263 -1764 -114 -204 -301 -579 -392 -785 -96
-215 -248 -605 -298 -760 -20 -60 -48 -144 -62 -185 -55 -155 -175 -594 -224
-820 -28 -129 -56 -253 -61 -275 -16 -65 -62 -347 -85 -520 -66 -495 -82 -699
-91 -1170 -6 -308 6 -752 26 -974 26 -285 86 -735 129 -971 39 -217 160 -735
191 -820 5 -14 25 -85 45 -159 36 -131 186 -578 220 -656 9 -22 25 -62 35 -90
117 -319 379 -882 542 -1163 26 -46 48 -86 48 -89 0 -17 258 -434 391 -632 88
-131 125 -184 249 -356 31 -43 172 -226 240 -312 308 -388 814 -916 1194
-1243 55 -47 122 -105 151 -130 84 -73 288 -233 450 -355 230 -172 586 -408
823 -545 43 -25 95 -56 117 -70 59 -36 270 -150 437 -235 548 -279 1213 -538
1759 -685 85 -23 186 -51 224 -61 253 -68 753 -166 1040 -203 953 -123 1662
-126 2605 -11 189 24 278 37 510 79 122 23 532 112 615 135 39 10 122 33 185
50 454 122 1013 326 1464 534 226 105 658 327 771 397 22 14 74 45 117 70 145
84 270 163 427 268 241 162 274 185 311 214 19 15 85 64 145 109 379 285 724
588 1080 951 267 271 332 343 604 668 47 56 244 310 291 375 119 165 161 224
242 345 249 371 559 912 680 1185 17 39 51 111 75 160 25 50 54 113 65 140 11
28 39 95 63 150 24 55 55 129 69 165 13 36 45 117 69 180 54 140 186 531 221
655 13 50 41 147 60 216 110 389 225 988 270 1404 3 28 12 109 20 180 31 273
40 487 40 950 0 544 -17 829 -73 1232 -6 38 -13 91 -16 118 -34 271 -152 875
-210 1070 -8 28 -39 138 -70 247 -50 178 -191 614 -214 663 -14 28 -44 106
-77 195 -93 257 -339 784 -505 1085 -168 307 -225 400 -423 700 -164 250 -389
565 -416 585 -3 3 -26 32 -50 65 -63 86 -238 295 -389 465 -261 293 -562 590
-863 853 -153 134 -203 175 -438 362 -57 46 -257 193 -377 278 -303 213 -734
476 -1033 628 -52 27 -111 57 -130 69 -87 49 -522 249 -715 327 -452 183 -988
357 -1390 449 -88 20 -187 43 -220 50 -170 40 -533 100 -930 154 -403 55
-1192 75 -1715 44z m1115 -189 c338 -20 777 -67 1040 -111 201 -34 688 -138
815 -174 41 -12 98 -27 125 -34 133 -35 227 -63 425 -128 208 -69 573 -201
655 -238 22 -10 103 -45 180 -78 646 -276 1331 -673 1920 -1113 484 -362 954
-793 1379 -1264 110 -122 359 -420 423 -506 23 -31 47 -62 55 -70 13 -14 99
-131 225 -308 52 -73 178 -264 310 -469 127 -197 396 -698 503 -932 21 -47 54
-119 73 -160 19 -41 51 -115 71 -165 21 -49 46 -109 56 -132 17 -37 67 -166
147 -383 13 -36 44 -126 68 -200 24 -74 55 -169 68 -210 58 -175 165 -590 206
-795 97 -491 120 -635 161 -1030 43 -421 58 -1131 32 -1500 -46 -624 -79 -874
-194 -1440 -49 -246 -143 -599 -235 -885 -66 -206 -207 -598 -243 -677 -11
-24 -40 -91 -64 -150 -191 -468 -491 -1026 -813 -1513 -180 -272 -467 -664
-540 -738 -7 -8 -25 -30 -40 -50 -15 -21 -48 -60 -73 -88 -25 -28 -81 -93
-125 -144 -169 -197 -513 -550 -710 -730 -106 -97 -331 -294 -380 -332 -11 -9
-60 -49 -110 -90 -314 -257 -862 -633 -1175 -806 -25 -13 -70 -39 -100 -57
-135 -80 -673 -355 -693 -355 -4 0 -45 -18 -91 -40 -216 -101 -679 -280 -911
-353 -27 -9 -122 -38 -210 -66 -365 -115 -896 -234 -1317 -297 -255 -37 -305
-43 -473 -59 -99 -9 -202 -18 -230 -20 -251 -24 -834 -31 -1176 -15 -234 11
-620 43 -766 64 -334 48 -742 120 -863 151 -30 8 -155 39 -278 70 -303 75
-889 262 -1067 340 -16 7 -102 42 -190 78 -598 244 -1180 560 -1775 965 -127
86 -518 383 -640 485 -100 84 -152 128 -195 167 -28 25 -93 83 -145 130 -300
268 -669 656 -937 985 -32 39 -66 79 -76 90 -36 38 -232 300 -398 530 -43 60
-144 214 -272 415 -56 87 -197 333 -276 478 -455 841 -800 1805 -966 2702 -54
290 -67 373 -85 510 -62 492 -84 823 -83 1300 0 313 4 453 22 675 35 444 71
736 131 1040 60 305 86 427 110 520 52 200 81 309 96 365 27 97 145 462 179
555 18 50 56 151 84 226 27 75 61 160 74 190 14 30 40 90 57 134 132 333 407
861 670 1290 161 262 479 710 654 921 28 34 78 94 111 134 165 200 424 482
612 665 40 39 114 111 165 161 220 215 585 521 898 751 52 38 120 87 150 109
70 49 403 269 467 309 181 110 350 208 543 313 75 41 378 192 385 192 4 0 37
15 73 33 37 19 153 70 257 115 1014 432 2070 682 3134 742 103 6 193 12 201
14 51 10 692 4 905 -9z"/>
<path d="M9860 19629 c-369 -12 -770 -55 -1215 -130 -259 -43 -694 -143 -927
-213 -49 -14 -127 -38 -175 -52 -250 -72 -776 -267 -993 -367 -41 -19 -109
-49 -150 -67 -67 -29 -329 -156 -372 -180 -10 -6 -66 -35 -125 -66 -110 -58
-202 -110 -423 -242 -151 -90 -585 -377 -620 -410 -14 -12 -41 -33 -60 -44
-32 -20 -209 -154 -350 -266 -96 -75 -235 -195 -420 -361 -114 -102 -527 -514
-625 -625 -44 -49 -103 -115 -131 -145 -28 -31 -60 -69 -73 -86 -12 -16 -37
-46 -55 -65 -58 -64 -237 -296 -421 -545 -186 -252 -488 -740 -655 -1060 -75
-142 -224 -447 -260 -530 -5 -11 -34 -78 -66 -150 -31 -71 -64 -152 -74 -180
-10 -27 -36 -95 -58 -150 -179 -440 -390 -1206 -476 -1730 -51 -310 -87 -616
-112 -935 -28 -363 -22 -1064 12 -1405 57 -582 123 -973 252 -1500 90 -368
315 -1032 449 -1325 14 -30 44 -100 68 -155 77 -178 277 -579 365 -730 13 -22
40 -69 60 -105 40 -70 160 -266 258 -421 194 -307 584 -819 829 -1091 331
-367 725 -751 1002 -977 135 -109 308 -247 369 -293 213 -162 655 -460 797
-538 33 -18 67 -39 76 -46 15 -13 212 -124 339 -192 223 -117 513 -258 663
-321 51 -21 112 -48 137 -59 84 -40 444 -174 655 -244 440 -146 968 -275 1415
-347 566 -91 1229 -133 1750 -112 332 14 362 16 660 47 431 45 593 71 1015
160 370 78 976 256 1255 367 36 14 103 40 149 57 92 33 384 158 521 222 239
112 646 325 760 398 19 13 76 46 125 75 89 52 204 125 320 204 33 23 103 71
155 106 191 130 255 178 460 338 546 429 1057 934 1505 1491 99 123 198 252
248 325 21 31 47 65 57 76 23 26 305 450 355 535 21 36 53 88 70 115 135 214
408 741 508 980 14 33 39 89 55 125 164 354 414 1127 507 1564 13 61 37 175
54 253 49 228 110 659 141 998 31 336 42 747 30 1109 -6 170 -12 312 -14 315
-2 3 -6 44 -10 91 -11 154 -17 213 -42 415 -41 326 -77 541 -148 865 -58 265
-166 666 -231 855 -69 201 -134 384 -150 420 -9 22 -35 87 -57 145 -130 343
-455 1002 -625 1267 -18 29 -33 54 -33 56 0 16 -337 532 -420 642 -17 22 -49
67 -73 99 -23 33 -46 64 -52 70 -5 6 -37 47 -69 91 -33 44 -77 100 -97 125
-21 25 -77 92 -125 150 -356 428 -867 934 -1239 1226 -33 26 -78 64 -101 83
-46 41 -249 197 -317 244 -26 18 -90 63 -144 101 -204 144 -383 259 -603 389
-47 27 -110 65 -141 83 -228 135 -771 399 -1039 504 -58 22 -114 45 -125 50
-35 16 -125 50 -260 97 -71 25 -168 58 -215 75 -76 26 -190 61 -435 133 -88
25 -218 57 -425 104 -74 17 -151 35 -170 40 -69 19 -519 90 -825 131 -146 20
-440 40 -710 50 -306 11 -380 11 -715 -1z m2865 -1160 c112 -34 207 -102 221
-157 12 -44 -1 -141 -22 -170 -46 -61 -155 -105 -315 -127 l-46 -7 3 -41 c2
-23 9 -115 14 -205 5 -90 12 -168 15 -173 4 -5 13 -9 20 -9 18 0 226 -58 233
-65 3 -3 0 -16 -6 -30 -25 -54 -117 -59 -254 -16 -51 16 -129 39 -173 51 -392
105 -429 119 -499 181 -92 80 -82 229 21 318 71 62 142 86 349 117 l31 4 -1
114 c-1 124 6 144 65 188 69 52 225 64 344 27z m-2575 -168 c108 -57 103 -184
-8 -233 -41 -18 -52 -20 -92 -9 -53 14 -110 68 -110 105 0 31 -10 37 -49 30
-28 -6 -32 -12 -61 -102 l-31 -95 21 -21 c19 -20 30 -21 188 -19 92 1 218 4
280 8 l113 7 -6 42 c-9 55 9 119 47 174 47 68 134 105 260 110 288 12 459 -80
392 -210 -34 -66 -46 -70 -179 -63 -66 4 -122 8 -124 10 -2 2 13 29 33 59 57
86 57 86 -7 86 -31 0 -61 2 -69 5 -9 3 -25 -25 -51 -88 -20 -50 -37 -98 -37
-104 0 -40 89 -54 492 -82 65 -4 121 -11 125 -14 14 -15 -19 -59 -60 -77 -48
-22 -109 -25 -271 -10 -61 5 -166 14 -233 20 -134 11 -213 35 -258 76 l-27 25
-20 -26 c-45 -58 -81 -64 -438 -67 -251 -3 -287 2 -352 45 l-34 24 -16 -28
c-28 -48 -82 -66 -278 -95 -246 -36 -256 -30 -227 129 8 45 14 83 13 84 -1 1
-51 -54 -111 -123 -122 -141 -162 -168 -266 -180 -35 -5 -68 -7 -73 -6 -4 2
-13 -1 -20 -7 -13 -11 -91 -38 -161 -56 -27 -8 -84 -23 -125 -34 -91 -25 -128
-26 -159 -5 -22 16 -24 16 -33 0 -49 -88 -204 -136 -284 -87 l-32 19 -10 -23
c-6 -13 -26 -34 -44 -47 -50 -37 -312 -148 -348 -148 -21 0 -41 9 -59 28 -24
24 -29 39 -35 105 -8 77 -19 97 -32 55 -13 -43 -134 -281 -160 -316 -29 -38
-77 -62 -123 -62 -47 0 -65 36 -71 144 l-5 91 -82 -167 c-88 -178 -91 -182
-197 -232 -33 -15 -69 -40 -82 -56 -23 -27 -191 -138 -271 -179 -23 -11 -57
-21 -76 -21 -54 0 -72 29 -102 165 -15 66 -30 125 -34 132 -5 9 -23 2 -64 -25
-47 -30 -57 -41 -52 -57 3 -11 13 -64 22 -118 16 -88 16 -101 3 -125 -13 -22
-81 -71 -101 -72 -3 0 -16 54 -29 121 -14 74 -29 123 -37 126 -7 3 -28 -6 -46
-21 -17 -14 -66 -52 -107 -83 -108 -82 -105 -77 -59 -102 100 -57 135 -187 81
-303 -42 -91 -199 -223 -295 -249 -59 -16 -149 -6 -187 21 -39 27 -79 96 -88
151 l-7 43 -102 -94 c-56 -52 -110 -106 -121 -121 l-20 -25 46 -14 c35 -10 62
-29 108 -76 34 -35 69 -79 78 -98 72 -152 25 -432 -93 -556 -30 -32 -45 -40
-73 -40 -48 0 -61 14 -104 110 -21 47 -44 94 -51 105 -13 19 -13 19 -13 0 0
-25 -44 -92 -96 -148 -22 -23 -59 -66 -83 -95 -71 -86 -122 -100 -173 -49 -13
13 -50 69 -83 125 -33 56 -62 102 -65 101 -3 0 -24 -23 -47 -52 l-41 -51 20
-41 c11 -22 36 -65 54 -96 42 -71 44 -107 5 -151 -27 -31 -28 -35 -14 -53 10
-14 13 -38 11 -82 -4 -62 -27 -107 -119 -233 -10 -14 -35 -50 -55 -80 -144
-215 -227 -297 -312 -307 -70 -8 -114 10 -166 68 -72 80 -85 170 -41 292 25
72 102 198 156 255 103 110 212 114 259 10 10 -22 17 -46 16 -52 -3 -24 -127
-206 -136 -201 -5 3 -23 33 -41 65 -17 33 -35 60 -38 60 -4 0 -21 -24 -39 -54
l-33 -53 53 -76 c82 -117 107 -116 190 5 32 46 103 151 159 235 l101 152 -65
108 c-41 69 -69 106 -78 104 -35 -11 -96 -10 -119 1 -40 22 -70 75 -70 127 0
52 33 129 75 176 15 17 36 41 47 55 17 21 22 23 30 10 5 -8 25 -42 45 -74 l36
-59 46 50 c63 68 180 205 191 223 8 13 11 12 24 -5 9 -11 16 -23 16 -27 0 -4
17 -35 38 -70 22 -35 58 -96 82 -135 23 -40 46 -73 50 -73 4 0 14 10 23 23 8
12 44 56 81 97 36 41 66 80 66 87 0 7 -18 51 -39 97 l-40 84 -39 -5 c-48 -6
-105 18 -120 51 -9 21 -5 28 34 67 24 24 44 50 44 59 0 8 -11 36 -25 62 -14
26 -48 99 -76 164 l-51 117 88 88 c49 49 92 85 96 81 8 -8 128 -307 128 -319
0 -5 4 -14 9 -22 7 -11 12 -10 28 5 11 11 49 46 84 78 35 33 137 132 227 220
119 117 165 157 173 149 11 -11 77 37 314 225 33 27 74 58 92 70 32 22 32 23
17 59 -33 77 15 165 132 242 42 28 78 51 79 51 1 0 10 -29 20 -65 17 -62 27
-76 40 -55 9 15 25 12 25 -5 0 -8 2 -15 4 -15 6 0 80 44 196 117 47 29 86 49
87 45 1 -4 18 -81 38 -171 20 -91 39 -171 43 -178 6 -10 34 3 112 53 58 37
105 67 106 68 0 1 -5 75 -12 166 -7 91 -13 182 -13 202 l-1 36 106 51 c59 28
110 51 115 51 9 0 16 -38 23 -135 3 -38 6 -72 6 -75 1 -3 30 51 65 120 71 141
120 204 179 231 88 40 115 17 127 -103 4 -46 8 -85 9 -88 0 -3 30 54 65 127
70 143 107 194 166 224 66 33 112 19 128 -39 5 -17 13 -81 17 -143 11 -176 0
-166 126 -111 l108 47 -8 35 c-40 196 61 342 278 401 36 10 132 36 214 58 82
23 151 40 153 37 2 -2 -2 -88 -9 -190 -7 -102 -11 -186 -8 -186 3 1 61 18 130
39 l125 38 34 184 c19 101 35 185 37 187 4 6 246 43 250 39 3 -2 -4 -49 -15
-103 -10 -54 -18 -100 -16 -102 3 -3 55 51 159 165 79 86 201 129 248 86 25
-22 23 -81 -7 -228 -13 -66 -25 -123 -25 -126 0 -3 48 3 108 12 59 10 112 18
117 19 6 0 10 34 10 83 0 79 2 84 38 139 75 112 192 152 452 157 61 1 89 -3
115 -18z m3780 -320 c183 -93 210 -118 210 -189 0 -32 -12 -60 -58 -134 -67
-106 -175 -272 -222 -338 -17 -25 -51 -75 -75 -112 l-44 -68 37 16 c20 9 44
18 52 21 8 3 42 18 75 34 33 15 110 48 170 72 61 25 145 61 188 81 l77 37 -24
32 c-37 49 -49 99 -37 145 22 80 77 122 161 122 57 0 113 -20 148 -53 50 -47
69 -146 39 -203 -23 -44 -87 -101 -137 -122 -25 -11 -148 -64 -275 -117 -126
-53 -259 -110 -294 -126 -186 -86 -232 -86 -381 -7 -95 50 -99 53 -86 73 8 11
44 67 81 125 95 152 188 297 203 317 24 35 132 208 132 213 0 3 -30 20 -68 39
-115 59 -203 114 -195 121 4 4 43 30 87 58 l78 51 37 -23 c20 -12 74 -42 121
-65z m927 -597 c15 -11 41 -37 57 -58 27 -33 31 -45 31 -101 0 -68 -15 -99
-68 -139 -38 -28 -128 -28 -182 0 -124 65 -139 248 -25 307 47 24 149 19 187
-9z m-284 -354 c53 -36 96 -69 96 -75 0 -5 -21 -26 -47 -45 -187 -138 -242
-185 -226 -195 9 -5 38 -24 63 -42 25 -18 67 -46 92 -62 l47 -29 143 88 c79
49 154 96 166 105 22 15 26 14 90 -39 38 -30 83 -68 101 -83 l32 -28 -91 -55
-91 -55 169 -5 c151 -4 173 -7 213 -28 83 -44 107 -82 80 -131 -8 -16 -107
-82 -247 -167 l-32 -19 62 -50 c150 -119 128 -108 173 -89 43 18 176 83 182
89 2 2 -12 18 -32 35 -20 18 -36 36 -36 41 0 8 59 38 100 51 8 3 26 -3 40 -13
14 -9 55 -27 90 -39 71 -24 107 -23 238 7 l72 17 45 -44 c25 -24 45 -47 45
-51 0 -3 -56 -33 -125 -65 -69 -32 -125 -64 -125 -71 0 -6 27 -35 60 -64 68
-59 66 -69 -13 -71 -48 -1 -97 21 -139 60 -25 23 -29 24 -60 12 -29 -11 -186
-89 -197 -97 -2 -1 50 -57 116 -123 l119 -120 28 29 c15 15 52 41 83 57 79 40
156 39 244 -3 35 -17 77 -41 92 -54 31 -25 149 -160 260 -296 l67 -81 -167
-56 c-93 -31 -174 -60 -182 -65 -15 -10 -20 -2 92 -138 l59 -70 31 28 c98 90
282 74 395 -34 19 -18 59 -70 89 -117 31 -47 87 -132 125 -189 37 -57 68 -107
68 -111 0 -6 -334 -91 -359 -90 -11 0 -10 -4 2 -22 9 -13 34 -52 57 -88 22
-36 48 -76 58 -89 l19 -23 27 25 c15 15 51 34 78 43 142 47 283 -42 386 -244
55 -108 74 -164 74 -228 0 -79 -44 -124 -122 -124 -65 0 -81 14 -132 119 -27
54 -48 101 -48 104 0 4 36 7 80 7 l80 0 -30 60 c-34 68 -32 67 -154 49 -95
-14 -116 -33 -97 -85 7 -19 65 -142 129 -272 64 -130 118 -240 120 -244 7 -14
-43 -8 -83 11 -22 10 -50 29 -62 42 -28 32 -226 429 -253 509 -15 46 -21 82
-18 127 3 55 1 63 -15 63 -48 0 -119 65 -182 164 -33 52 -40 58 -64 53 -118
-24 -206 -30 -269 -18 -79 15 -117 36 -171 97 -69 79 -75 179 -14 235 65 60
157 95 209 80 l29 -8 0 67 0 68 -44 5 c-58 6 -78 23 -199 163 -117 135 -135
163 -130 207 2 25 -1 32 -17 35 -34 6 -99 39 -127 65 -42 39 -62 86 -61 145
l0 52 -42 0 c-57 0 -97 31 -272 206 -112 113 -143 150 -148 177 -6 28 -12 36
-36 41 -15 3 -45 16 -66 30 -77 49 -268 213 -281 239 -19 39 -1 63 92 121 42
26 76 49 76 50 0 2 -80 1 -179 -2 -174 -5 -179 -4 -232 20 -30 14 -74 44 -98
66 -24 23 -60 47 -80 53 -63 21 -300 179 -328 219 -24 34 -7 75 50 124 73 62
281 216 288 213 3 -1 49 -31 102 -67z m-3929 -15 c376 -26 573 -52 941 -126
216 -44 573 -138 755 -199 106 -36 427 -158 481 -183 30 -14 92 -42 139 -63
47 -20 144 -66 215 -102 1211 -602 2201 -1546 2865 -2732 130 -232 320 -642
400 -865 17 -49 44 -124 60 -165 50 -135 96 -290 166 -560 69 -261 144 -706
176 -1040 18 -184 18 -966 0 -1155 -15 -161 -46 -392 -68 -515 -35 -191 -85
-447 -94 -475 -5 -16 -25 -91 -45 -165 -68 -248 -192 -625 -235 -715 -5 -11
-20 -47 -34 -80 -229 -561 -592 -1174 -970 -1634 -203 -247 -556 -617 -746
-781 -41 -36 -81 -72 -90 -80 -23 -23 -216 -180 -276 -225 -240 -181 -409
-296 -609 -416 -66 -39 -136 -82 -155 -94 -19 -12 -89 -51 -155 -85 -66 -34
-124 -66 -130 -70 -19 -13 -360 -169 -485 -221 -281 -116 -685 -243 -1050
-328 -286 -67 -724 -128 -1095 -152 -196 -13 -708 -6 -880 11 -554 55 -913
120 -1350 245 -282 81 -681 232 -949 359 -65 31 -120 56 -122 56 -1 0 -83 43
-181 96 -478 257 -863 525 -1283 893 -205 179 -561 552 -755 791 -164 202
-383 512 -508 720 -148 247 -338 611 -397 760 -10 26 -28 67 -39 91 -47 105
-66 154 -126 321 -62 172 -117 342 -150 463 -9 33 -27 100 -40 148 -57 208
-138 641 -165 882 -52 454 -54 1051 -5 1510 48 445 183 1048 324 1440 80 224
95 264 167 431 107 252 345 719 398 784 7 8 25 38 41 65 122 218 506 741 670
911 11 12 29 32 39 45 62 76 253 273 396 407 231 217 399 355 710 587 217 161
639 412 930 553 845 410 1677 619 2650 665 90 4 565 -1 664 -8z m-7453 -2326
c211 -72 271 -358 172 -822 l-16 -78 89 -90 89 -89 -58 -116 -58 -117 -92 95
c-294 304 -432 452 -429 462 2 6 25 57 52 114 37 76 53 101 63 95 7 -4 57 -55
111 -113 54 -58 105 -108 112 -113 16 -9 20 4 33 103 15 110 -11 242 -60 312
-24 33 -87 68 -122 68 -47 0 -90 -69 -261 -413 -92 -186 -170 -337 -174 -337
-4 0 -31 38 -60 84 l-53 84 171 341 c93 187 186 365 205 395 34 54 103 121
140 136 29 13 107 12 146 -1z m14395 -2194 c278 -156 462 -370 525 -613 26
-97 35 -281 21 -389 l-11 -82 44 -128 c25 -70 56 -168 70 -218 44 -164 114
-493 131 -620 9 -68 21 -122 26 -119 19 12 58 119 74 202 14 72 15 112 8 227
-5 77 -9 230 -8 340 0 185 2 208 27 305 72 275 109 287 217 70 83 -165 120
-314 120 -482 0 -241 -74 -392 -308 -630 -121 -123 -134 -140 -128 -163 4 -15
11 -122 16 -237 5 -116 11 -212 13 -215 2 -2 18 24 36 56 28 54 87 135 132
184 9 10 16 34 16 56 0 117 89 197 196 177 19 -3 52 -22 75 -41 97 -84 72
-252 -45 -301 -47 -20 -83 -17 -137 10 l-48 24 -36 -31 c-54 -48 -76 -74 -140
-167 l-59 -86 -6 -164 c-6 -152 -20 -290 -48 -480 -23 -157 -136 -624 -174
-722 -4 -10 -5 -18 -2 -18 20 0 46 22 103 88 70 83 125 172 154 255 119 335
194 480 334 642 75 87 109 115 144 115 36 0 45 -40 45 -215 0 -127 -4 -179
-21 -252 -71 -315 -254 -517 -577 -642 -60 -23 -128 -51 -150 -61 -22 -9 -47
-20 -56 -23 -9 -3 -28 -40 -43 -84 -16 -43 -57 -145 -92 -226 -35 -81 -64
-150 -64 -154 0 -3 17 10 38 29 47 42 142 100 203 123 39 14 48 22 53 47 8 40
71 101 123 117 125 40 230 -73 193 -210 -18 -65 -82 -125 -143 -134 -66 -10
-132 15 -159 61 -11 19 -27 34 -36 34 -34 -1 -189 -71 -255 -117 -62 -41 -72
-54 -109 -127 -108 -217 -400 -664 -526 -807 -13 -15 -37 -45 -53 -68 -27 -35
-28 -41 -12 -41 65 0 269 135 359 237 90 102 234 254 258 272 10 8 41 34 67
57 106 94 331 217 388 212 31 -3 36 -7 39 -31 7 -63 -100 -312 -185 -428 -159
-219 -340 -333 -583 -368 -41 -6 -156 -13 -255 -16 -150 -5 -181 -9 -189 -22
-9 -16 -221 -243 -292 -312 -19 -19 -33 -35 -31 -37 1 -2 29 6 62 17 33 11
105 25 160 31 87 10 104 15 129 39 107 103 279 65 293 -64 9 -79 -33 -153
-110 -194 -42 -22 -123 -22 -165 1 -39 20 -72 70 -72 108 0 21 -6 29 -26 34
-41 11 -192 -3 -271 -24 -40 -11 -73 -17 -73 -14 0 3 -24 -17 -54 -44 -210
-192 -475 -394 -517 -394 -49 0 -75 46 -46 82 6 9 66 57 132 107 181 138 243
188 322 260 71 64 73 68 93 145 19 77 24 172 11 229 -5 23 -15 32 -59 46 -61
21 -90 44 -108 88 -29 69 -12 137 46 187 57 47 181 31 228 -29 49 -62 47 -152
-5 -207 -21 -21 -24 -34 -21 -65 7 -51 -9 -173 -28 -218 -14 -35 -14 -36 4
-26 10 5 89 83 175 173 179 186 166 151 121 323 -83 313 -95 429 -63 593 27
136 165 380 274 482 50 47 92 8 119 -112 26 -114 29 -187 12 -287 -19 -108
-46 -182 -122 -333 -87 -172 -162 -429 -123 -416 29 9 304 383 390 529 24 41
53 88 65 104 11 17 57 98 101 180 l81 150 -9 73 c-10 91 -31 155 -69 215 -27
43 -31 46 -64 40 -85 -14 -170 37 -196 117 -12 36 -12 47 2 83 56 157 320 118
320 -47 0 -24 -6 -54 -12 -66 -10 -19 -9 -29 9 -60 29 -51 51 -143 51 -215 l1
-60 29 60 c58 118 139 321 155 386 7 30 -22 81 -128 222 -133 177 -205 319
-228 451 -18 105 -6 298 25 421 35 134 44 154 74 162 33 8 48 -2 104 -71 131
-163 177 -360 149 -647 -9 -91 -10 -151 -2 -224 10 -94 37 -212 47 -203 18 18
137 482 163 634 29 167 59 435 66 589 l7 130 -31 56 c-39 71 -100 141 -158
180 l-45 31 -40 -22 c-53 -29 -133 -31 -180 -3 -101 59 -104 184 -5 257 44 32
152 30 194 -4 36 -29 63 -79 63 -117 0 -20 18 -44 68 -92 37 -36 82 -93 100
-126 l33 -60 -5 210 c-3 116 -8 226 -12 245 -7 44 -29 62 -179 145 -208 115
-296 177 -382 267 -54 57 -121 166 -154 251 -36 94 -79 285 -79 352 0 39 3 47
25 55 37 14 87 -6 202 -83 137 -90 234 -229 318 -452 70 -187 144 -323 210
-385 l25 -24 -6 50 c-28 233 -106 575 -190 837 -55 171 -66 189 -131 239 -143
111 -309 317 -366 453 -36 86 -73 214 -97 330 -22 109 -36 274 -27 299 10 27
65 19 133 -19z m-14456 -1 c12 -30 0 -153 -31 -311 -38 -196 -91 -332 -185
-473 -47 -71 -228 -260 -287 -300 -20 -13 -45 -40 -55 -60 -37 -67 -145 -433
-186 -630 -24 -116 -66 -367 -66 -399 0 -24 36 16 89 98 63 99 93 160 121 246
75 231 209 419 365 513 96 57 160 79 182 61 33 -28 -3 -261 -64 -409 -88 -212
-220 -341 -516 -504 -70 -39 -143 -84 -161 -101 -31 -28 -33 -35 -40 -120 -3
-49 -9 -155 -12 -235 l-5 -145 32 55 c44 75 82 121 129 156 27 20 40 37 40 54
1 42 36 106 71 131 51 36 142 34 192 -4 53 -40 70 -70 69 -123 -2 -62 -28
-104 -82 -131 -55 -29 -111 -29 -168 -2 -43 21 -44 21 -79 3 -44 -23 -121
-110 -168 -187 -34 -56 -35 -60 -30 -140 27 -439 89 -792 208 -1182 24 -78 25
-79 36 -51 21 52 43 236 37 305 -28 336 -17 442 63 606 76 155 169 241 209
193 17 -21 61 -174 77 -265 19 -109 19 -223 0 -321 -20 -100 -103 -266 -196
-392 -91 -122 -169 -237 -169 -248 0 -12 127 -327 158 -391 26 -53 27 -54 30
-26 7 81 25 162 48 213 20 45 23 61 15 80 -16 33 -13 89 5 128 34 72 143 103
228 66 38 -17 50 -30 67 -67 27 -61 19 -110 -26 -163 -39 -44 -97 -65 -157
-56 -34 6 -38 4 -64 -37 -35 -55 -60 -135 -68 -221 -8 -75 -13 -64 112 -288
138 -248 328 -524 496 -720 l21 -25 3 27 c6 54 -57 250 -128 393 -100 202
-130 307 -130 452 0 120 45 283 82 296 28 9 65 -22 140 -123 80 -105 135 -208
179 -330 21 -57 24 -83 23 -205 0 -125 -4 -153 -33 -265 -45 -171 -70 -281
-71 -306 0 -14 56 -79 170 -195 161 -165 169 -172 154 -129 -9 25 -19 95 -23
155 -6 97 -10 114 -34 149 -35 50 -36 104 -2 161 29 51 75 75 142 75 68 0 113
-26 141 -80 50 -98 -5 -199 -124 -224 -21 -5 -34 -15 -38 -29 -12 -44 -5 -184
12 -253 17 -70 18 -71 103 -145 106 -91 223 -185 349 -279 52 -39 98 -79 102
-90 9 -24 -26 -70 -53 -70 -21 0 -109 58 -213 139 -104 82 -260 211 -306 255
-41 39 -53 44 -148 64 -58 13 -139 22 -186 22 l-84 0 -6 -32 c-28 -151 -225
-175 -318 -40 -78 113 -13 245 120 244 59 -1 90 -13 133 -50 29 -25 47 -31
129 -42 52 -7 128 -22 167 -35 l73 -23 -176 182 c-203 209 -171 193 -407 195
-359 3 -612 132 -792 406 -97 147 -168 318 -163 389 3 41 3 41 42 40 44 -2
168 -62 275 -133 115 -77 228 -183 431 -407 75 -83 144 -135 252 -189 126 -63
145 -61 83 10 -20 22 -50 60 -67 85 -18 25 -48 65 -69 90 -94 114 -316 465
-432 680 -40 75 -53 90 -109 126 -77 51 -127 77 -196 104 -68 26 -74 25 -94
-10 -25 -43 -74 -70 -131 -70 -80 0 -143 47 -172 130 -24 67 -13 123 35 174
38 40 40 41 107 41 63 0 73 -3 110 -33 23 -18 50 -51 60 -73 15 -35 27 -45 98
-78 44 -21 103 -56 130 -77 75 -60 79 -60 52 -8 -33 66 -59 126 -89 204 -87
225 -74 203 -131 227 -29 12 -101 41 -162 65 -351 139 -535 355 -590 692 -15
91 -19 330 -6 375 20 71 81 45 185 -79 40 -47 86 -105 103 -130 49 -72 133
-246 173 -360 61 -168 76 -202 124 -282 47 -77 170 -217 181 -206 4 4 -12 71
-35 150 -95 325 -135 533 -175 911 -8 78 -15 180 -15 226 l0 84 -55 87 c-50
79 -130 170 -169 192 -10 6 -29 2 -55 -12 -119 -60 -241 18 -241 156 0 154
161 233 273 134 36 -31 57 -85 57 -145 0 -31 8 -46 43 -81 23 -24 59 -72 79
-107 21 -34 42 -69 47 -77 5 -10 11 27 15 105 3 66 11 171 16 234 l9 113 -129
136 c-185 193 -248 293 -291 462 -47 186 -3 450 110 667 58 110 81 138 112
130 32 -8 60 -63 93 -188 47 -174 54 -364 25 -655 -16 -151 19 -355 72 -425
l17 -23 6 34 c64 423 119 652 236 995 19 54 19 67 9 139 -26 173 8 394 83 541
71 141 213 294 362 390 175 112 218 127 236 79z m2278 -7630 c143 -37 270
-109 392 -222 25 -23 48 -42 52 -42 12 0 50 -70 59 -108 14 -62 0 -110 -45
-157 -33 -35 -50 -45 -89 -50 -183 -27 -315 179 -201 314 l25 30 -38 25 c-136
89 -400 39 -544 -104 -106 -105 -131 -210 -77 -320 30 -61 95 -142 149 -186
81 -65 279 -239 279 -245 0 -12 -52 -29 -88 -29 -45 0 -87 25 -183 108 -41 35
-105 90 -144 122 -141 119 -242 253 -285 380 -95 281 192 539 570 513 41 -3
117 -16 168 -29z m10645 -206 c71 -37 81 -133 20 -190 -83 -78 -204 -39 -205
66 -1 49 30 107 67 125 28 14 92 13 118 -1z m-693 -264 c84 -50 82 -174 -3
-238 -42 -31 -146 -30 -179 2 -30 27 -32 27 -67 1 l-29 -21 30 -81 c45 -123
54 -137 94 -137 19 0 126 78 315 233 190 155 193 157 201 144 13 -21 9 -87 -9
-120 -19 -38 -62 -78 -158 -152 -38 -29 -79 -61 -90 -72 -11 -10 -35 -29 -52
-41 -18 -13 -59 -45 -90 -72 -125 -106 -255 -144 -343 -98 -36 19 -51 35 -75
83 -38 76 -40 160 -6 249 26 65 126 179 215 243 28 21 53 40 56 43 3 3 18 16
34 28 35 27 114 30 156 6z m-9212 -173 c15 -11 60 -40 100 -65 39 -25 72 -50
72 -55 0 -5 -24 -26 -52 -47 -56 -39 -123 -89 -412 -303 -98 -73 -174 -136
-170 -140 5 -4 60 -43 122 -85 61 -43 112 -79 112 -81 0 -3 -14 -12 -32 -21
-66 -34 -176 5 -313 111 -22 17 -63 46 -91 64 -97 60 -95 115 8 191 33 25 91
68 128 95 37 28 156 115 264 194 108 79 199 148 202 152 9 14 33 10 62 -10z
m7512 -330 c0 -49 9 -191 24 -381 3 -30 10 -154 17 -275 13 -243 10 -268 -40
-347 -37 -58 -79 -87 -212 -142 -57 -24 -167 -71 -244 -105 -77 -34 -146 -65
-152 -68 -10 -4 -13 9 -13 44 0 68 26 150 53 167 12 8 85 31 162 51 77 21 157
42 179 48 l39 10 -7 91 c-3 50 -13 195 -21 321 -15 237 -25 345 -31 345 -12 0
-214 -87 -412 -178 -64 -29 -132 -134 -132 -204 0 -83 75 -151 77 -70 2 86 72
163 163 180 119 21 209 -41 218 -151 3 -45 0 -60 -21 -94 -54 -86 -149 -133
-280 -141 -149 -8 -232 49 -280 192 -55 161 22 344 190 454 47 31 147 79 253
122 96 39 179 75 185 79 5 5 57 28 114 51 57 24 115 49 129 56 14 7 29 11 34
8 4 -3 8 -31 8 -63z m902 -12 c28 -15 42 -56 73 -214 15 -77 29 -142 30 -143
2 -2 34 16 72 41 102 67 179 108 186 100 27 -26 -18 -131 -71 -169 -88 -61
-267 -165 -312 -181 -47 -17 -50 -16 -69 1 -22 20 -33 50 -51 144 -7 34 -16
62 -19 62 -4 0 -26 -64 -51 -142 -43 -139 -89 -237 -127 -269 -10 -9 -44 -30
-76 -48 -42 -24 -58 -29 -61 -19 -3 7 -18 81 -35 163 -17 83 -38 184 -47 225
-28 124 -33 114 91 190 61 38 111 67 113 66 1 -2 13 -54 26 -117 17 -82 25
-108 31 -94 48 123 75 197 75 207 1 25 38 95 71 133 59 67 107 87 151 64z
m-7999 -357 c100 -51 208 -107 240 -125 l58 -33 -63 -54 c-35 -30 -65 -57 -68
-60 -3 -4 -42 -39 -88 -79 -46 -41 -80 -77 -75 -81 4 -4 63 -36 131 -70 67
-35 121 -68 119 -74 -2 -6 -19 -19 -38 -29 -51 -27 -115 -17 -208 34 -42 23
-114 62 -161 87 -97 51 -120 72 -120 114 0 26 -3 29 -22 22 -40 -13 -125 -6
-170 14 -147 65 -166 221 -41 345 70 71 118 87 236 84 l88 -3 182 -92z m1069
-256 c32 -39 21 -103 -27 -156 -21 -23 -23 -38 -28 -155 -5 -143 -21 -201 -65
-235 -14 -11 -23 -23 -20 -25 5 -5 247 -95 255 -95 2 0 -1 -9 -7 -21 -30 -56
-134 -61 -250 -13 -36 15 -141 55 -235 90 -278 103 -286 106 -321 140 -66 62
-34 151 58 161 64 7 124 -23 192 -98 37 -42 58 -58 69 -53 27 10 55 66 63 123
8 60 8 60 -66 28 -33 -14 -39 -13 -102 10 -38 14 -68 28 -68 32 0 3 54 27 120
51 l120 45 0 40 c0 22 4 46 8 53 5 6 60 39 123 71 109 56 115 58 139 44 14 -9
33 -25 42 -37z m1653 -140 c102 -55 123 -181 44 -271 -64 -73 -203 -74 -279
-1 -48 44 -63 82 -58 142 11 131 164 199 293 130z m-815 -92 c34 -21 60 -64
60 -101 0 -15 -12 -48 -26 -73 l-26 -45 12 -125 c14 -146 6 -197 -41 -241
l-29 -27 138 -32 c75 -18 138 -34 140 -35 11 -10 -35 -56 -69 -69 -55 -22 -83
-20 -201 13 -57 16 -187 48 -290 71 -270 62 -336 101 -308 184 15 47 42 68 93
73 59 7 118 -20 191 -86 63 -57 72 -57 102 0 13 26 20 139 9 139 -3 0 -25 -10
-47 -21 -39 -20 -47 -21 -110 -9 -37 6 -70 15 -73 19 -4 8 103 72 178 107 36
17 37 19 37 74 l0 55 58 34 c31 19 81 52 111 73 30 21 56 38 59 38 2 0 16 -7
32 -16z m3325 -68 c51 -22 67 -53 64 -128 -3 -61 -1 -66 49 -144 68 -105 86
-160 79 -231 l-6 -55 37 5 c20 3 69 13 107 22 140 32 137 32 129 -1 -11 -46
-40 -80 -86 -102 -56 -25 -549 -123 -655 -130 -77 -4 -83 -3 -107 21 -50 50
-27 138 44 167 38 16 147 9 213 -15 27 -9 51 -14 54 -11 3 3 8 28 11 55 3 39
-1 58 -19 90 -12 23 -25 41 -28 41 -3 0 -17 -16 -31 -35 -16 -22 -38 -39 -60
-44 -63 -17 -120 -29 -120 -25 0 3 18 29 40 58 22 29 40 55 40 59 0 3 -15 1
-32 -3 -18 -5 -114 -14 -213 -20 -99 -6 -203 -13 -232 -16 l-52 -6 20 -38 c29
-56 33 -100 15 -164 -42 -144 -207 -229 -415 -213 -105 8 -149 25 -203 77 -54
52 -73 108 -63 179 14 96 67 167 163 215 68 34 128 43 397 61 132 8 336 23
453 32 186 14 212 19 206 32 -20 47 -15 61 56 170 77 119 83 123 145 97z
m-2755 -270 c36 -8 91 -17 123 -21 31 -4 57 -10 57 -14 0 -3 -19 -40 -41 -81
-99 -181 -140 -263 -135 -267 5 -5 239 -42 269 -43 48 -1 -21 -72 -86 -89 -36
-9 -77 -6 -228 15 -101 14 -194 32 -206 40 -27 17 -38 53 -28 92 3 15 47 103
96 196 49 93 89 172 89 177 0 12 13 11 90 -5z m885 -85 l119 -8 43 -48 c34
-37 43 -55 43 -82 0 -82 -82 -148 -170 -137 -24 3 -51 9 -59 14 -36 19 -65 62
-70 103 -6 41 -7 42 -47 45 l-41 3 -37 -91 c-43 -109 -45 -134 -11 -156 27
-18 199 -32 415 -34 69 -1 147 -5 173 -8 l48 -7 -23 -35 c-45 -67 -66 -72
-298 -65 -228 7 -335 12 -395 21 -49 8 -130 46 -168 79 -111 99 -49 291 120
370 91 44 151 50 358 36z"/>
<path d="M12611 18336 c-44 -16 -61 -41 -61 -90 0 -92 13 -100 103 -66 72 27
104 61 91 97 -10 28 -46 58 -79 66 -11 3 -35 0 -54 -7z"/>
<path d="M12245 17946 c-71 -33 -106 -74 -112 -130 -4 -32 -1 -53 10 -70 17
-25 93 -59 160 -71 l37 -7 0 68 c0 38 -3 106 -7 152 -7 94 -9 96 -88 58z"/>
<path d="M8084 17899 l-61 -19 -5 -82 c-3 -46 -1 -93 3 -106 11 -28 43 -41 83
-33 26 6 31 12 37 46 10 62 18 215 10 214 -3 0 -34 -9 -67 -20z"/>
<path d="M5368 16493 l-57 -45 31 -87 c37 -103 65 -135 105 -120 16 5 38 18
50 28 l23 19 -41 118 c-23 66 -44 122 -48 125 -3 4 -32 -14 -63 -38z"/>
<path d="M4843 15828 c2 -7 32 -92 67 -188 77 -218 76 -216 85 -156 18 116
-11 242 -69 307 -36 41 -95 67 -83 37z"/>
<path d="M16060 15469 c-80 -33 -110 -53 -110 -77 0 -23 43 -93 54 -88 6 2 59
21 119 41 59 20 107 41 107 47 0 11 -80 108 -89 107 -3 0 -40 -14 -81 -30z"/>
<path d="M16590 14754 c-91 -27 -120 -46 -120 -77 0 -27 32 -77 49 -77 22 0
224 50 239 59 10 6 5 21 -20 64 -18 31 -40 56 -48 56 -8 0 -53 -11 -100 -25z"/>
<path d="M16242 14590 c-18 -4 -41 -15 -51 -24 -23 -21 -34 -56 -18 -56 25 -1
207 45 207 52 0 23 -88 41 -138 28z"/>
<path d="M9855 16894 c-22 -2 -121 -11 -220 -20 -99 -8 -241 -24 -315 -35
-242 -35 -663 -125 -855 -182 -531 -158 -962 -338 -1410 -589 -192 -107 -525
-324 -692 -451 -172 -131 -201 -154 -316 -250 -381 -319 -763 -729 -1064
-1143 -437 -601 -768 -1268 -971 -1956 -84 -282 -86 -289 -131 -508 -79 -386
-98 -521 -130 -925 -14 -176 -6 -844 13 -1035 37 -375 119 -825 200 -1102 14
-49 37 -127 51 -175 107 -369 326 -892 510 -1218 25 -44 59 -105 75 -135 34
-64 171 -282 251 -402 412 -613 974 -1195 1569 -1624 648 -468 1337 -802 2080
-1007 297 -82 367 -98 653 -146 463 -77 574 -86 1092 -86 504 1 690 17 1161
100 229 41 347 68 604 140 185 52 583 188 680 233 25 11 92 41 150 65 129 55
366 169 440 212 30 18 89 50 130 72 94 50 300 177 445 273 682 455 1315 1085
1774 1768 81 121 217 338 251 402 16 30 44 80 61 110 90 156 269 534 341 720
38 99 144 390 150 415 3 11 31 106 61 210 56 192 102 384 132 550 91 504 110
717 110 1230 0 547 -26 804 -134 1341 -37 181 -135 550 -191 714 -38 112 -157
422 -188 490 -16 36 -44 99 -62 140 -72 166 -232 470 -340 645 -23 39 -55 91
-70 116 -118 196 -334 492 -540 739 -192 230 -521 564 -719 730 -30 25 -76 64
-103 87 -26 23 -71 60 -100 82 -29 22 -75 57 -103 79 -210 164 -513 365 -745
494 -200 111 -368 197 -525 268 -650 292 -1344 476 -2060 546 -160 15 -891 29
-1000 18z m1170 -2915 c112 -56 165 -135 165 -249 0 -74 -27 -174 -61 -222
-28 -41 -161 -208 -209 -264 -19 -22 -69 -83 -110 -134 -41 -51 -133 -164
-205 -251 -71 -86 -165 -200 -208 -252 -102 -125 -149 -170 -211 -201 -72 -36
-137 -46 -312 -46 l-154 0 0 33 c0 17 5 77 10 132 6 55 19 210 30 345 23 284
46 553 60 694 6 54 10 102 10 107 0 5 -114 9 -260 9 -196 0 -260 3 -260 12 0
7 37 74 83 151 l82 138 310 -3 c297 -3 312 -4 351 -25 52 -28 90 -72 105 -124
10 -32 8 -77 -10 -252 -25 -243 -66 -650 -84 -845 -12 -132 -12 -133 6 -110
11 12 81 100 157 193 76 94 185 229 242 300 57 72 111 139 120 150 71 88 148
186 148 189 0 3 -22 12 -50 21 -67 22 -141 91 -170 157 -40 93 -15 219 58 284
38 35 108 75 145 85 56 14 172 3 222 -22z m-2315 -23 c102 -23 177 -59 228
-109 55 -53 78 -97 93 -181 15 -78 2 -183 -30 -258 -75 -176 -289 -347 -581
-466 -213 -87 -266 -104 -467 -152 l-132 -32 -12 -37 c-10 -33 -73 -216 -87
-251 -3 -8 -13 -35 -22 -60 l-16 -45 -212 -3 c-117 -1 -212 0 -212 4 0 3 23
67 51 142 29 75 69 187 90 247 36 104 174 495 244 690 l32 90 206 3 c140 2
207 -1 207 -8 0 -12 -24 -84 -70 -210 -56 -152 -112 -321 -108 -325 2 -2 39 7
81 20 342 105 547 291 547 493 0 46 -21 104 -45 127 -53 48 -65 49 -757 46
-357 -2 -648 1 -648 6 0 8 36 69 125 214 l50 81 685 -5 c595 -4 695 -7 760
-21z m4220 -2 c59 -28 127 -95 152 -152 27 -60 27 -153 1 -213 -55 -125 -222
-203 -362 -169 -64 15 -158 77 -189 124 -32 47 -52 130 -45 182 l6 43 -39 -5
c-132 -19 -252 -88 -359 -210 -176 -197 -254 -411 -225 -614 21 -151 96 -253
235 -320 127 -62 198 -70 606 -70 220 0 349 -4 349 -10 0 -23 -45 -97 -72
-119 -61 -49 -95 -55 -368 -59 -253 -4 -523 8 -636 29 -197 35 -351 107 -457
212 -103 102 -147 216 -147 382 0 278 160 549 445 756 72 53 256 143 352 173
153 47 308 65 548 62 138 -1 166 -5 205 -22z m-7190 -1605 c14 -9 68 -43 120
-75 170 -105 284 -191 471 -354 47 -41 125 -109 174 -150 49 -41 112 -96 140
-121 27 -25 73 -62 100 -83 80 -60 135 -116 135 -137 0 -23 -7 -23 260 -4 204
14 352 21 1005 50 1196 53 2148 56 3055 10 157 -8 335 -17 395 -20 61 -3 209
-10 330 -15 288 -14 876 -56 1057 -76 246 -26 686 -83 851 -109 169 -27 636
-119 677 -134 14 -5 37 -12 51 -15 34 -7 122 -97 160 -163 16 -29 37 -84 45
-124 17 -84 20 -89 42 -89 9 0 69 -26 132 -58 l115 -57 -3 -35 c-2 -19 -24
-109 -48 -200 -24 -91 -62 -248 -84 -350 -22 -102 -57 -246 -79 -320 l-40
-135 4 100 c3 55 7 143 10 195 3 52 9 201 15 330 10 243 19 384 25 410 2 8
-14 35 -37 60 l-41 45 7 -36 c14 -77 -22 -345 -66 -494 -38 -128 -147 -455
-158 -473 -10 -15 -10 -15 -6 3 3 11 14 49 25 85 55 182 86 449 78 674 -12
341 -72 437 -310 496 -137 34 -532 116 -682 141 -125 21 -642 95 -725 104 -30
3 -82 10 -115 15 -62 10 -345 38 -661 65 -295 25 -856 34 -1589 25 -666 -9
-862 -15 -1470 -45 -165 -8 -417 -19 -560 -25 -143 -6 -276 -13 -295 -15 -49
-6 -159 -14 -270 -20 -52 -3 -144 -10 -205 -15 -318 -26 -406 -32 -410 -28 -4
4 106 16 495 53 233 23 518 43 990 70 234 13 524 31 645 39 121 8 294 18 385
22 91 3 183 8 205 10 22 2 211 7 420 11 652 12 81 41 -985 50 -575 5 -1859 -9
-2085 -22 -27 -2 -162 -6 -300 -10 l-250 -7 -21 -26 c-14 -17 -32 -26 -55 -27
-19 -1 -64 -12 -100 -23 -104 -35 -196 -50 -360 -62 -254 -17 -336 -30 -404
-62 -32 -15 -36 -16 -20 -2 43 35 128 65 330 114 115 29 215 56 221 61 7 5 16
9 20 8 10 -2 24 3 107 39 32 14 56 28 55 32 -7 17 -346 376 -494 522 -165 162
-293 275 -379 334 -55 37 -108 80 -85 68 8 -4 26 -15 40 -25z m-206 -51 c-4
-7 -16 -23 -27 -35 l-20 -22 110 -118 c222 -238 357 -412 424 -548 44 -88 52
-113 53 -163 1 -40 -5 -67 -17 -86 -19 -29 -88 -66 -122 -65 -11 0 -3 6 18 14
89 31 112 86 78 188 -51 152 -217 346 -561 656 -58 52 -109 105 -114 118 -16
39 12 56 101 63 43 4 79 8 81 8 2 1 0 -4 -4 -10z m339 -1045 c-7 -2 -19 -2
-25 0 -7 3 -2 5 12 5 14 0 19 -2 13 -5z m27 -77 c0 -2 -8 -10 -17 -17 -16 -13
-17 -12 -4 4 13 16 21 21 21 13z m1408 -3 c-10 -2 -28 -2 -40 0 -13 2 -5 4 17
4 22 1 32 -1 23 -4z m-110 -10 c-10 -2 -26 -2 -35 0 -10 3 -2 5 17 5 19 0 27
-2 18 -5z m-832 -413 c27 -36 85 -121 129 -189 44 -67 131 -200 194 -294 168
-254 278 -451 352 -630 65 -157 105 -399 93 -557 -5 -73 -11 -92 -39 -135 -77
-117 -142 -146 -400 -179 -170 -23 -358 -20 -555 8 l-165 24 95 1 c342 4 672
79 755 171 27 30 43 130 44 274 2 261 -74 563 -239 951 -77 181 -228 481 -274
545 -35 48 -66 102 -49 85 6 -5 32 -39 59 -75z m4684 -660 c477 -21 1025 -78
1313 -135 71 -14 183 -43 250 -65 67 -22 151 -50 187 -61 36 -12 81 -30 100
-40 l35 -18 -35 -1 c-19 -1 -84 -5 -145 -10 -109 -8 -177 -5 -580 24 -180 14
-352 24 -680 41 -423 22 -1394 27 -2070 10 -313 -7 -851 -34 -1165 -57 -162
-11 -349 -21 -415 -22 -152 -1 -323 13 -304 25 26 17 124 52 209 74 47 13 117
33 155 45 116 35 338 77 555 104 292 37 856 82 1100 89 267 8 1303 6 1490 -3z
m-419 -366 c287 -48 598 -209 828 -428 90 -86 214 -246 265 -340 113 -210 167
-506 147 -806 l-5 -65 75 -17 c237 -56 531 -43 957 42 251 50 462 119 644 211
207 104 306 176 483 354 109 110 114 114 58 45 -93 -114 -277 -294 -385 -376
-274 -208 -688 -438 -936 -520 -131 -43 -307 -87 -442 -110 -247 -42 -670 -12
-740 53 -8 7 -31 24 -50 36 -47 30 -82 114 -74 175 4 25 2 48 -5 55 -7 10 -7
32 0 78 14 83 14 285 -1 374 -14 90 -44 193 -80 275 -16 36 -45 110 -65 164
-88 232 -283 454 -544 619 -96 60 -309 144 -430 169 -53 11 -98 21 -100 24
-12 12 316 2 400 -12z m3910 -47 c-10 -9 -11 -8 -5 6 3 10 9 15 12 12 3 -3 0
-11 -7 -18z m115 -133 c44 -8 97 -22 120 -30 l41 -15 -9 -62 c-29 -219 -97
-381 -202 -481 -80 -76 -233 -107 -506 -102 -191 4 -335 23 -474 62 -139 39
-260 108 -297 167 -30 51 -22 58 19 17 25 -25 55 -43 92 -53 216 -63 735 -92
931 -52 101 21 121 30 178 87 45 45 126 198 154 293 8 28 18 57 21 66 5 12
-12 24 -76 52 -46 21 -103 43 -128 51 l-45 14 51 1 c29 1 87 -6 130 -15z
m-5036 -18 c0 -2 -28 -22 -63 -45 -118 -77 -274 -256 -335 -386 -37 -78 -81
-209 -103 -304 -25 -108 -36 -389 -20 -506 7 -44 18 -129 26 -190 8 -60 17
-120 20 -132 7 -30 -28 -108 -78 -169 -59 -73 -87 -88 -149 -80 -27 4 -165 13
-306 21 -141 8 -330 21 -419 29 -181 17 -467 38 -828 61 -132 9 -298 20 -370
25 -71 5 -173 12 -225 15 -52 3 -160 12 -240 20 -187 19 -789 63 -995 72 -200
9 -160 19 85 22 101 1 194 4 205 6 11 2 139 9 285 15 146 6 301 12 345 15 327
19 543 28 1140 45 710 20 993 30 1035 35 14 2 37 4 51 4 26 1 26 2 32 99 11
175 69 429 132 577 38 90 119 243 149 280 17 22 39 52 49 67 35 55 144 162
232 227 120 89 152 108 248 147 83 33 97 37 97 30z m1377 -1206 c34 -111 12
-305 -49 -423 -163 -320 -519 -529 -834 -489 -91 12 -155 37 -220 86 -23 17
-49 36 -59 41 -12 7 -2 9 37 6 150 -10 419 78 587 192 146 98 316 296 379 439
35 81 74 221 75 270 l1 47 33 -57 c18 -31 40 -82 50 -112z m328 -758 c-29
-148 -67 -236 -147 -340 -207 -268 -551 -422 -939 -422 -305 0 -577 98 -793
286 -53 46 -126 144 -191 259 -32 55 -36 57 66 -20 64 -49 297 -165 389 -195
154 -49 431 -87 563 -75 132 11 271 35 357 61 109 33 287 121 376 187 105 78
268 250 306 323 18 35 33 62 34 61 1 -1 -8 -57 -21 -125z"/>
<path d="M6321 3410 c-76 -81 -84 -94 -76 -120 9 -29 71 -73 88 -63 8 4 56 47
107 95 l93 86 -71 36 c-39 20 -73 36 -74 35 -2 0 -32 -32 -67 -69z"/>
<path d="M10763 2502 c-41 -2 -75 -8 -80 -15 -17 -22 -64 -207 -58 -226 8 -25
54 -43 100 -39 l38 3 38 135 c21 74 38 137 36 140 -1 3 -34 4 -74 2z"/>
</g>
</svg>
